<svg xmlns="http://www.w3.org/2000/svg" width="1600" height="900" viewBox="0 0 1600 900">
  <defs>
    <linearGradient id="sky" x1="0" x2="0" y1="0" y2="1">
      <stop offset="0" stop-color="#4d5960"/>
      <stop offset="1" stop-color="#1d221f"/>
    </linearGradient>
  </defs>
  <rect width="1600" height="900" fill="url(#sky)"/>
  <g transform="scale(1.78 1.45) translate(0 0)"><rect x="120" y="240" width="670" height="360" fill="#3b312a"/><polygon points="100,240 450,92 812,240" fill="#1f1b18"/><rect x="548" y="330" width="130" height="130" fill="#201815"/><circle cx="612" cy="420" r="58" fill="#e06b31"/><rect x="180" y="455" width="210" height="65" fill="#141312"/><path d="M230 450 H342 L318 410 H252 Z" fill="#5f6670"/></g>
  <path d="M0 650 C270 600 410 700 650 640 C930 570 1150 680 1600 620 V900 H0 Z" fill="#3f3932"/>
  <path d="M0 730 C380 690 555 800 880 715 C1140 648 1300 750 1600 710 V900 H0 Z" fill="#2f2b24" opacity="0.55"/>
  <g opacity="0.28">
    <circle cx="1280" cy="180" r="90" fill="#f0d899"/>
    <rect x="0" y="0" width="1600" height="900" fill="#000" opacity="0.12"/>
  </g>
</svg>