<svg xmlns="http://www.w3.org/2000/svg" width="1600" height="900" viewBox="0 0 1600 900">
  <defs>
    <linearGradient id="sky" x1="0" x2="0" y1="0" y2="1">
      <stop offset="0" stop-color="#3d2f28"/>
      <stop offset="1" stop-color="#1d221f"/>
    </linearGradient>
  </defs>
  <rect width="1600" height="900" fill="url(#sky)"/>
  <g transform="scale(1.78 1.45) translate(0 0)"><rect x="0" y="0" width="900" height="620" fill="#4b3529"/><rect x="92" y="120" width="220" height="250" fill="#2b211b"/><rect x="595" y="155" width="205" height="235" fill="#2b211b"/><rect x="350" y="335" width="190" height="140" fill="#231914"/><circle cx="445" cy="405" r="64" fill="#d27c36"/><rect x="150" y="500" width="600" height="70" fill="#6d4a2d"/></g>
  <path d="M0 650 C270 600 410 700 650 640 C930 570 1150 680 1600 620 V900 H0 Z" fill="#5f4636"/>
  <path d="M0 730 C380 690 555 800 880 715 C1140 648 1300 750 1600 710 V900 H0 Z" fill="#2f2b24" opacity="0.55"/>
  <g opacity="0.28">
    <circle cx="1280" cy="180" r="90" fill="#f0d899"/>
    <rect x="0" y="0" width="1600" height="900" fill="#000" opacity="0.12"/>
  </g>
</svg>